<svg id="facebook" xmlns="http://www.w3.org/2000/svg" width="18.538" height="18.538" viewBox="0 0 18.538 18.538">
  <circle id="Ellipse_14" data-name="Ellipse 14" cx="9.269" cy="9.269" r="9.269" transform="translate(0 0)" fill="#fff"/>
  <g id="google" transform="translate(3.956 3.956)">
    <path id="Path_242" data-name="Path 242" d="M2.47,103.421a2.782,2.782,0,0,1,.394-1.43v-1.776H1.087a5.271,5.271,0,0,0,0,6.412H2.863v-1.776A2.782,2.782,0,0,1,2.47,103.421Z" transform="translate(0 -98.153)" fill="#fbbd00"/>
    <path id="Path_243" data-name="Path 243" d="M197.235,373.353,196,374.588l1.235,1.235a5.229,5.229,0,0,0,3.206-1.087v-1.774h-1.774A2.8,2.8,0,0,1,197.235,373.353Z" transform="translate(-191.966 -365.286)" fill="#0f9d58"/>
    <path id="Path_244" data-name="Path 244" d="M54.6,325.477l-1.776,1.776a5.355,5.355,0,0,0,.456.519A5.234,5.234,0,0,0,57,329.315v-2.47A2.8,2.8,0,0,1,54.6,325.477Z" transform="translate(-51.736 -318.779)" fill="#31aa52"/>
    <path id="Path_245" data-name="Path 245" d="M261.268,198.532a5.317,5.317,0,0,0-.086-.954l-.046-.253H256v2.47h2.5a2.786,2.786,0,0,1-1.068,1.145l1.774,1.774a5.355,5.355,0,0,0,.519-.456A5.234,5.234,0,0,0,261.268,198.532Z" transform="translate(-250.732 -193.263)" fill="#3c79e6"/>
    <path id="Path_246" data-name="Path 246" d="M199.214,3.289l.218.218,1.746-1.746-.218-.218A5.234,5.234,0,0,0,197.235,0L196,1.235l1.235,1.235A2.781,2.781,0,0,1,199.214,3.289Z" transform="translate(-191.966 0)" fill="#cf2d48"/>
    <path id="Path_247" data-name="Path 247" d="M57,2.47V0a5.234,5.234,0,0,0-3.725,1.543,5.347,5.347,0,0,0-.456.519L54.6,3.839A2.8,2.8,0,0,1,57,2.47Z" transform="translate(-51.735 0)" fill="#eb4132"/>
  </g>
</svg>
